# AST/ASF file generated using VICON BodyLanguage
# -----------------------------------------------
:version 1.10
:name VICON
:units
  mass 1.0
  length 0.45
  angle deg
:documentation
   .ast/.asf automatically generated from VICON data using
   VICON BodyBuilder and BodyLanguage model FoxedUp or BRILLIANT.MOD
:root
   order TX TY TZ RX RY RZ
   axis XYZ
   position 0 0 0  
   orientation 0 0 0 
:bonedata
  begin
     id 1 
     name lhipjoint
     direction 0.567725 -0.736092 0.368589 
     length 2.42353 
     axis 0 0 0  XYZ
  end
  begin
     id 2 
     name lfemur
     direction 0.34202 -0.939693 0  
     length 7.24894  
     axis 0 0 20  XYZ
    dof rx ry rz
    limits (-160.0 20.0)
           (-70.0 70.0)
           (-60.0 70.0)
  end
  begin
     id 3 
     name ltibia
     direction 0.34202 -0.939693 0   
     length 7.6997   
     axis 0 0 20   XYZ
    dof rx
    limits (-10.0 170.0)
  end
  begin
     id 4 
     name lfoot
     direction 0.100767 -0.276854 0.955614   
     length 2.37556   
     axis -90 7.62852e-016 20   XYZ
    dof rx rz
    limits (-45.0 90.0)
           (-70.0 20.0)
  end
  begin
     id 5 
     name ltoes
     direction 1.53592e-011 -4.21894e-011 1   
     length 1.18363   
     axis -90 7.62852e-016 20   XYZ
    dof rx
    limits (-90.0 20.0)
  end
  begin
     id 6 
     name rhipjoint
     direction -0.556459 -0.742938 0.372017   
     length 2.4012  
     axis 0 0 0  XYZ 
  end
  begin
     id 7 
     name rfemur
     direction -0.34202 -0.939693 0   
     length 7.5119   
     axis 0 0 -20   XYZ
    dof rx ry rz
    limits (-160.0 20.0)
           (-70.0 70.0)
           (-70.0 60.0)
  end
  begin
     id 8 
     name rtibia
     direction -0.34202 -0.939693 0   
     length 7.50155   
     axis 0 0 -20   XYZ
    dof rx
    limits (-10.0 170.0)
 end
 begin
     id 9 
     name rfoot
     direction -0.118427 -0.325376 0.938139   
     length 2.32487  
     axis -90 -7.62852e-016 -20   XYZ
    dof rx rz
    limits (-45.0 90.0)
           (-20.0 70.0)
  end
  begin
     id 10 
     name rtoes
     direction -1.53525e-011 -4.21868e-011 1   
     length 1.15233   
     axis -90 -7.62852e-016 -20   XYZ
    dof rx
    limits (-90.0 20.0)
  end
  begin
     id 11 
     name lowerback
     direction 0.0287568 0.999577 -0.00434502   
     length 2.15243   
     axis 0 0 0   XYZ
    dof rx ry rz
    limits (-20.0 45.0)
           (-30.0 30.0)
           (-30.0 30.0)
  end
  begin
     id 12 
     name upperback
     direction 0.0294009 0.99956 0.00404628   
     length 2.15427   
     axis 0 0 0   XYZ
    dof rx ry rz
    limits (-20.0 45.0)
           (-30.0 30.0)
           (-30.0 30.0)
  end
  begin
     id 13 
     name thorax
     direction 0.0151014 0.999868 0.0059419   
     length 2.14898   
     axis 0 0 0   XYZ
    dof rx ry rz
    limits (-20.0 45.0)
           (-30.0 30.0)
           (-30.0 30.0)
  end
  begin
     id 14 
     name lowerneck
     direction -0.0249197 0.989906 0.139515   
     length 1.6861   
     axis 0 0 0   XYZ
    dof rx ry rz
    limits (-20.0 45.0)
           (-30.0 30.0)
           (-30.0 30.0)
  end
  begin
     id 15 
     name upperneck
     direction 0.0438463 0.988795 -0.142693   
     length 1.71276   
     axis 0 0 0   XYZ
    dof rx ry rz
    limits (-20.0 45.0)
           (-30.0 30.0)
           (-30.0 30.0)
  end
  begin
     id 16
     name head
     direction 0.0148499 0.997845 -0.0639186  
     length 1.7209  
     axis 0 0 0   XYZ
    dof rx ry rz
    limits (-20.0 45.0)
           (-30.0 30.0)
           (-30.0 30.0)
  end
  begin
     id 17 
     name lclavicle
     direction 0.940298 0.323464 -0.105876  
     length 3.9048  
     axis 0 0 0   XYZ
    dof ry rz
    limits (-20.0 10.0)
           (0.0 20.0)
  end
  begin
     id 18 
     name lhumerus
     direction 1 -4.48954e-011 -4.9675e-028   
     length 4.6851   
     axis 180 -30 -90   XYZ
    dof rx ry rz
    limits (-60.0 90.0)
           (-90.0 90.0)
           (-90.0 90.0)
  end
  begin
     id 19
     name lradius
     direction 1 -4.48992e-011 -1.03359e-026   
     length 3.39626   
     axis 180 -30 -90   XYZ
    dof rx
    limits (-10.0 170.0)
  end
  begin
     id 20
     name lwrist
     direction 1 -4.48906e-011 -1.67336e-026   
     length 1.69813   
     axis 9.90442e-015 90 90   XYZ
    dof ry
    limits (-180.0 0.0)
 end
  begin
     id 21 
     name lhand
     direction 1 -4.49006e-011 -3.34673e-026   
     length 0.486078   
     axis 2.1355e-014 90 90   XYZ
    dof rx rz
    limits (-90.0 90.0)
           (-45.0 45.0)
  end
  begin
     id 22 
     name lfingers
     direction 1 -4.48992e-011 -6.69345e-026   
     length 0.391889   
     axis 4.27099e-014 90 90   XYZ
    dof rx
    limits (0.0 90.0)
  end
  begin
     id 23
     name lthumb
     direction 0.707107 -6.34926e-011 0.707107   
     length 0.562676   
     axis -90 45 2.85299e-015   XYZ
    dof rx rz
    limits (-45.0 45.0)
           (-45.0 45.0)
  end
  begin
     id 24 
     name rclavicle
     direction -0.882459 0.414895 -0.221648   
     length 3.44646  
     axis 0 0 0   XYZ 
    dof ry rz
    limits (-10.0 20.0)
           (-20.0 0.0)
  end
  begin
     id 25 
     name rhumerus
     direction -1 -4.48962e-011 -2.37984e-027  
     length 5.55576   
     axis 180 30 90   XYZ
    dof rx ry rz
    limits (-90.0 60.0)
           (-90.0 90.0)
           (-90.0 90.0)
  end
  begin
     id 26 
     name rradius
     direction -1 -4.48982e-011 -6.86791e-027   
     length 3.32774   
     axis 180 30 90   XYZ
    dof rx
    limits (-10.0 170.0)
  end
  begin
     id 27 
     name rwrist
     direction -1 -4.48961e-011 -1.67336e-026   
     length 1.66387   
     axis 9.90442e-015 -90 -90   XYZ
    dof ry
    limits (-180.0 0.0)
  end
  begin
     id 28
     name rhand
     direction -1 -4.4897e-011 -3.34673e-026   
     length 0.507628   
     axis 2.1355e-014 -90 -90   XYZ
    dof rx rz
    limits (-90.0 90.0)
           (-45.0 45.0)
  end
  begin
     id 29
     name rfingers
     direction -1 -4.48854e-011 -6.69345e-026   
     length 0.409263   
     axis 4.27099e-014 -90 -90   XYZ
    dof rx
    limits (0.0 90.0)
  end
  begin
     id 30
     name rthumb
     direction -0.707107 -6.34913e-011 0.707107   
     length 0.587622   
     axis -90 -45 -2.85299e-015   XYZ
    dof rx rz
    limits (-45.0 45.0)
           (-45.0 45.0)
  end
:hierarchy
  begin
    root lhipjoint rhipjoint lowerback
    lhipjoint lfemur
    lfemur ltibia
    ltibia lfoot
    lfoot ltoes
    rhipjoint rfemur
    rfemur rtibia
    rtibia rfoot
    rfoot rtoes
    lowerback upperback
    upperback thorax
    thorax lowerneck lclavicle rclavicle
    lowerneck upperneck
    upperneck head
    lclavicle lhumerus
    lhumerus lradius
    lradius lwrist
    lwrist lhand lthumb
    lhand lfingers
    rclavicle rhumerus
    rhumerus rradius
    rradius rwrist
    rwrist rhand rthumb
    rhand rfingers
  end

#!OML:ASF E:\motion texture\Top Level 1\Subject 1\Session 1\male.ASF
:FULLY-SPECIFIED
:DEGREES
49
root 26.2883 17.6253 6.76477 54.3874 -84.6934 -47.2647
lowerback -0.227479 -3.49055 1.80096
upperback -2.28659 -4.66224 4.5718
thorax -1.98511 -2.3638 3.76512
lowerneck -9.35932 -12.6182 -13.9302
upperneck 11.1504 -16.48 9.53366
head 6.87329 -7.97677 3.55507
rclavicle 9.39258e-015 2.06736e-014
rhumerus -21.6739 -4.8837 -79.0871
rradius 103.215
rwrist -11.9933
rhand -17.2996 -26.3792
rfingers 7.12502
rthumb 8.94628 -56.1695
lclavicle 9.39258e-015 2.06736e-014
lhumerus -17.7252 -18.2194 86.2596
lradius 105.497
lwrist -11.8754
lhand 14.0769 12.6416
lfingers 7.12502
lthumb 38.982 38.1668
rfemur -28.7516 1.42759 23.28
rtibia 24.6153
rfoot -0.300706 -13.0944
rtoes 17.385
lfemur -0.40171 -4.86342 -13.8457
ltibia 35.5296
lfoot 0.971447 -7.35796
ltoes -19.8538
50
root 26.1271 17.6519 6.73731 55.3432 -84.238 -48.3151
lowerback -0.308573 -3.43171 2.14979
upperback -2.35812 -4.58578 4.68376
thorax -2.03567 -2.33332 3.6845
lowerneck -9.10759 -12.6604 -14.0813
upperneck 11.2583 -16.5737 9.58014
head 6.89377 -8.03407 3.58968
rclavicle 3.57812e-014 -5.08889e-014
rhumerus -21.486 -5.78097 -78.4867
rradius 102.362
rwrist -14.0601
rhand -17.325 -27.8183
rfingers 7.12502
rthumb 8.92177 -57.6097
lclavicle 3.57812e-014 -5.08889e-014
lhumerus -17.4245 -18.2749 86.0549
lradius 105.938
lwrist -10.7402
lhand 15.254 12.5366
lfingers 7.12502
lthumb 40.0907 37.7353
rfemur -27.8143 1.34585 23.9237
rtibia 24.2784
rfoot -0.830612 -13.0527
rtoes 17.4435
lfemur -1.46985 -4.53848 -12.9718
ltibia 37.4221
lfoot 3.7801 -7.78119
ltoes -18.243
51
root 25.9691 17.6757 6.71014 56.4344 -83.79 -49.5113
lowerback -0.312069 -3.35939 2.4975
upperback -2.45943 -4.48643 4.79883
thorax -2.16073 -2.29167 3.61471
lowerneck -8.81979 -12.709 -14.2518
upperneck 11.3732 -16.6819 9.631
head 6.91439 -8.10036 3.62834
rclavicle -1.78906e-015 3.10104e-014
rhumerus -21.3584 -6.62288 -77.8846
rradius 101.559
rwrist -16.1637
rhand -17.3515 -29.3975
rfingers 7.12502
rthumb 8.89616 -59.19
lclavicle -1.78906e-015 3.10104e-014
lhumerus -17.1554 -18.2846 85.8716
lradius 106.366
lwrist -9.51234
lhand 16.2472 12.5306
lfingers 7.12502
lthumb 41.0243 37.4393
rfemur -26.8866 1.26124 24.5842
rtibia 23.9414
rfoot -1.34052 -12.9821
rtoes 17.4767
lfemur -2.5577 -4.21405 -12.1199
ltibia 39.3144
lfoot 6.34228 -8.19359
ltoes -16.5124
52
root 25.8135 17.6969 6.68307 57.3353 -83.3366 -50.5377
lowerback -0.233681 -3.28669 2.83608
upperback -2.58628 -4.38015 4.91091
thorax -2.35749 -2.24695 3.55386
lowerneck -8.51277 -12.7639 -14.4388
upperneck 11.5066 -16.8058 9.69854
head 6.94282 -8.17493 3.67307
rclavicle 2.45499e-014 -1.90833e-014
rhumerus -21.2995 -7.41554 -77.2871
rradius 100.825
rwrist -18.148
rhand -17.3593 -31.0321
rfingers 7.12502
rthumb 8.88867 -60.8249
lclavicle 2.45499e-014 -1.90833e-014
lhumerus -16.9218 -18.2505 85.708
lradius 106.777
lwrist -8.19982
lhand 17.0133 12.6124
lfingers 7.12502
lthumb 41.7433 37.2878
rfemur -25.9463 1.17444 25.2413
rtibia 23.5911
rfoot -1.8289 -12.9218
rtoes 17.4743
lfemur -3.6535 -3.92519 -11.3047
ltibia 41.2185
lfoot 8.45628 -8.56626
ltoes -14.9351
53
root 25.66 17.7156 6.65618 58.0873 -82.8823 -51.4433
lowerback -0.199669 -3.20842 3.17322
upperback -2.64629 -4.27061 5.00551
thorax -2.46092 -2.20084 3.46891
lowerneck -8.21542 -12.8419 -14.6211
upperneck 11.5857 -16.9655 9.82081
head 6.96482 -8.26263 3.72967
rclavicle 3.49116e-014 -1.51076e-014
rhumerus -21.1877 -8.20653 -76.7362
rradius 100.162
rwrist -19.8398
rhand -17.3354 -32.6112
rfingers 7.12502
rthumb 8.91167 -62.403
lclavicle 3.49116e-014 -1.51076e-014
lhumerus -16.5735 -18.1811 85.4993
lradius 107.141
lwrist -6.82424
lhand 17.5139 12.7161
lfingers 7.12502
lthumb 42.2125 37.2345
rfemur -24.9832 1.09715 25.8933
rtibia 23.2303
rfoot -2.30166 -12.8795
rtoes 17.4554
lfemur -4.74791 -3.67459 -10.5293
ltibia 43.1469
lfoot 9.94366 -8.83155
ltoes -13.8307
